<svg height="512" viewBox="0 0 60 60" width="512" xmlns="http://www.w3.org/2000/svg" xmlns:xlink="http://www.w3.org/1999/xlink"><linearGradient id="linearGradient-1" x1="24.422%" x2="89.773%" y1="10.031%" y2="112.15%"><stop offset="0" stop-color="#d3dff2"/><stop offset=".172" stop-color="#d3dff2"/><stop offset=".2" stop-color="#d3dff2"/><stop offset=".2" stop-color="#dae2f2"/><stop offset=".201" stop-color="#ebeaf2"/><stop offset=".201" stop-color="#f6eff2"/><stop offset=".202" stop-color="#fdf2f2"/><stop offset=".205" stop-color="#fff3f2"/><stop offset=".252" stop-color="#fff3f2"/><stop offset=".26" stop-color="#fff3f2"/><stop offset=".26" stop-color="#d3dff2"/><stop offset=".397" stop-color="#d3dff2"/><stop offset=".42" stop-color="#d3dff2"/><stop offset=".42" stop-color="#dae2f2"/><stop offset=".421" stop-color="#ebeaf2"/><stop offset=".421" stop-color="#f6eff2"/><stop offset=".422" stop-color="#fdf2f2"/><stop offset=".425" stop-color="#fff3f2"/><stop offset=".489" stop-color="#fff3f2"/><stop offset=".5" stop-color="#fff3f2"/><stop offset=".5" stop-color="#f8f0f2"/><stop offset=".5" stop-color="#e7e8f2"/><stop offset=".5" stop-color="#dce3f2"/><stop offset=".5" stop-color="#d5e0f2"/><stop offset=".501" stop-color="#d3dff2"/><stop offset=".706" stop-color="#d3dff2"/><stop offset=".74" stop-color="#d3dff2"/><stop offset=".741" stop-color="#fff3f2"/><stop offset=".835" stop-color="#fff3f2"/><stop offset=".85" stop-color="#fff3f2"/><stop offset=".851" stop-color="#d3dff2"/></linearGradient><g id="Page-1" fill="none" fill-rule="evenodd"><g id="025---Online-Data" fill-rule="nonzero"><path id="Shape" d="m59 19.18v27.64c.0452102 1.152631-.8477494 2.1259569-2 2.18h-46c-1.15225064-.0540431-2.04521019-1.027369-2-2.18v-14.4c5.2407126 3.2704024 11.84305 3.4405402 17.2452472.4443985s8.7539515-8.6869719 8.7547528-14.8643985c0-.33-.01-.67-.03-1h22.03c1.1522506.0540431 2.0452102 1.027369 2 2.18z" fill="url(#linearGradient-1)"/><path id="Shape" d="m57 17h-3c1.1522506.0540431 2.0452102 1.027369 2 2.18v27.64c.0452102 1.152631-.8477494 2.1259569-2 2.18h3c1.1522506-.0540431 2.0452102-1.027369 2-2.18v-27.64c.0452102-1.152631-.8477494-2.1259569-2-2.18z" fill="#a4c2f7"/><path id="Shape" d="m30 49-3 6h11 3l-3-6z" fill="#a4c2f7"/><path id="Shape" d="m38 49h-3l3 6h3z" fill="#7facfa"/><path id="Shape" d="m21 55h26v2c0 1.1045695-.8954305 2-2 2h-22c-1.1045695 0-2-.8954305-2-2z" fill="#e8edfc" transform="matrix(-1 0 0 -1 68 114)"/><path id="Shape" d="m45 55h-3c1.1045695 0 2 .8954305 2 2v2h3v-2c0-1.1045695-.8954305-2-2-2z" fill="#cad9fc"/><path id="Shape" d="m35 18c.0053835 9.2968211-7.4542722 16.8757662-16.7500088 17.0178629-9.29573664.1420967-16.98355976-7.2053006-17.26233901-16.4979425-.27877926-9.29264183 6.95477079-17.08768037 16.24230831-17.50308186 9.2875374-.41540149 17.1881056 6.70273692 17.7400395 15.98316146.02.33.03.67.03 1z" fill="#e8edfc"/><path id="Shape" d="m9 32.42v14.4c-.04521019 1.152631.84774936 2.1259569 2 2.18h3c-1.1522506-.0540431-2.0452102-1.027369-2-2.18v-14.4c-6.20425874-3.8699302-9.23694086-11.2751052-7.52939275-18.3852013 1.70754811-7.110096 7.77235135-12.33043499 15.05739275-12.9607987-.504-.045-1.012-.074-1.528-.074-7.5846192.00157584-14.25067222 5.0273595-16.3392309 12.3187499s.90568888 15.0842875 7.3392309 19.1012501z" fill="#fff"/><path id="Rectangle-path" d="m8 32.42h2v8h-2z" fill="#fff"/><g fill="#428dff"><circle id="Oval" cx="41" cy="39" r="1"/><circle id="Oval" cx="41" cy="35" r="1"/><circle id="Oval" cx="41" cy="31" r="1"/><circle id="Oval" cx="54" cy="39" r="1"/><circle id="Oval" cx="54" cy="35" r="1"/><circle id="Oval" cx="54" cy="31" r="1"/><circle id="Oval" cx="54" cy="27" r="1"/><path id="Shape" d="m9.02 37.42c-.55228475.0027614-1.00223858-.4427153-1.005-.995s.44271525-1.0022386.995-1.005h.01c.55228475 0 1 .4477153 1 1s-.44771525 1-1 1z"/><path id="Shape" d="m57 16h-21.118c-.2472056-2.2234933-.9104001-4.3806563-1.955-6.359-.01-.026-.023-.049-.036-.075-3.1168974-5.88531738-9.2312695-9.56603642-15.891-9.56603642s-12.77410259 3.68071904-15.891 9.56603642c-.013.026-.026.049-.036.075-2.76392708 5.229954-2.76392708 11.488046 0 16.718.01.026.023.049.036.075 3.11689741 5.8853174 9.2312695 9.5660364 15.891 9.5660364s12.7741026-3.680719 15.891-9.5660364c.013-.026.026-.049.036-.075 1.3620494-2.5756969 2.0737109-5.4453438 2.073-8.359h21c.5957957.0615979 1.0369584.5821699 1 1.18v22.82h-4c-.5522847 0-1 .4477153-1 1s.4477153 1 1 1h4v2.82c.0369584.5978301-.4042043 1.1184021-1 1.18h-46c-.5957957-.0615979-1.0369584-.5821699-1-1.18v-2.82h40c.5522847 0 1-.4477153 1-1s-.4477153-1-1-1h-40v-1.58c0-.5522847-.44771525-1-1-1s-1 .4477153-1 1v6.4c-.04487651 1.7047185 1.2955594 3.1255806 3 3.18h17.382l-2 4h-3.382c-1.6568542 0-3 1.3431458-3 3v2c0 .5522847.4477153 1 1 1h26c.5522847 0 1-.4477153 1-1v-2c0-1.6568542-1.3431458-3-3-3h-3.382l-2-4h17.382c1.7044406-.0544194 3.0448765-1.4752815 3-3.18v-27.64c.0448765-1.7047185-1.2955594-3.1255806-3-3.18zm-25.782-7h-2.842c-.7080431-1.89122656-1.7304215-3.64928478-3.024-5.2 2.3538901 1.22357001 4.3689498 3.00984863 5.866 5.2zm-7.232 8c-.0314564-2.0063493-.174008-4.0094167-.427-6h3.419c.586283 1.9491893.9190214 3.9657855.99 6zm3.982 2c-.0709786 2.0342145-.403717 4.0508107-.99 6h-3.419c.252992-1.9905833.3955436-3.9936507.427-6zm-1.706-10h-3.012c-.3234206-2.06842202-.9248623-4.08365528-1.788-5.991 2.1872701 1.44575903 3.8660463 3.54108163 4.8 5.991zm-12.246 8c.023666-2.0065462.1649081-4.0099809.423-6h7.122c.2580919 1.9900191.399334 3.9934538.423 6zm7.968 2c-.023666 2.0065462-.1649081 4.0099809-.423 6h-7.122c-.2580919-1.9900191-.399334-3.9934538-.423-6zm-3.984-17c.918 0 2.353 2.389 3.232 7h-6.464c.879-4.611 2.314-7 3.232-7zm-3.462 1.009c-.8631377 1.90734472-1.4645794 3.92257798-1.788 5.991h-3.012c.9339537-2.44991837 2.6127299-4.54524097 4.8-5.991zm-2.524 13.991h-3.982c.07097861-2.0342145.40371697-4.0508107.99-6h3.419c-.252992 1.9905833-.3955436 3.9936507-.427 6zm.427 8h-3.419c-.58628303-1.9491893-.91902139-3.9657855-.99-6h3.982c.0314564 2.0063493.174008 4.0094167.427 6zm-1.793-21.2c-1.29357845 1.55071522-2.31595692 3.30877344-3.024 5.2h-2.842c1.49705019-2.19015137 3.51210988-3.97642999 5.866-5.2zm-7.013 7.2h3.31c-.5405943 1.9567826-.84641113 3.9709439-.911 6h-3.983c.12755148-2.0848251.66586436-4.1238891 1.584-6zm-1.584 8h3.983c.06458887 2.0290561.3704057 4.0432174.911 6h-3.31c-.91813564-1.8761109-1.45644852-3.9151749-1.584-6zm2.731 8h2.842c.70781706 1.8913336 1.7302167 3.6494283 3.024 5.2-2.35389012-1.22357-4.36894981-3.0098486-5.866-5.2zm4.956 0h3.012c.3234206 2.068422.9248623 4.0836553 1.788 5.991-2.1872701-1.445759-3.8660463-3.5410816-4.8-5.991zm8.262 7c-.918 0-2.353-2.389-3.232-7h6.464c-.879 4.611-2.314 7-3.232 7zm3.462-1.009c.8631377-1.9073447 1.4645794-3.922578 1.788-5.991h3.012c-.9339537 2.4499184-2.6127299 4.545241-4.8 5.991zm3.89-.8c1.2929115-1.5478491 2.3152733-3.302836 3.024-5.191h2.842c-1.4970502 2.1901514-3.5121099 3.97643-5.866 5.2zm7.013-7.191h-3.31c.5405943-1.9567826.8464111-3.9709439.911-6h3.983c-.1275515 2.0848251-.6658644 4.1238891-1.584 6zm-2.4-8c-.0645889-2.0290561-.3704057-4.0432174-.911-6h3.31c.9181356 1.8761109 1.4564485 3.9151749 1.584 6zm.652 33h6.764l2 4h-10.763zm10.383 6h4c.5522847 0 1 .4477153 1 1v1h-24v-1c0-.5522847.4477153-1 1-1z"/><path id="Shape" d="m33.832 37.555 7.268-10.9 5.141 6c.2050045.2420859.5136937.3711403.83.347.3161655-.0224763.6029547-.193511.773-.461l7-11c.2965769-.4661283.1591283-1.0844231-.307-1.381s-1.0844231-.1591283-1.381.307l-6.275 9.862-5.122-5.976c-.2043236-.2371684-.5079199-.3649699-.8203481-.3453327s-.5976327.1844469-.7706519.4453327l-8 12c-.1982824.297245-.2229246.6776931-.0646441.9980331.1582805.3203401.4754371.5319049.832.555s.6983617-.1457881.8966441-.4430331z"/></g></g></g></svg>