<?xml version="1.0" encoding="iso-8859-1"?>
<!-- Generator: Adobe Illustrator 19.0.0, SVG Export Plug-In . SVG Version: 6.00 Build 0)  -->
<svg version="1.1" id="Capa_1" xmlns="http://www.w3.org/2000/svg" xmlns:xlink="http://www.w3.org/1999/xlink" x="0px" y="0px"
	 viewBox="0 0 473.189 473.189" style="enable-background:new 0 0 473.189 473.189;" xml:space="preserve">
<circle style="fill:#D32144;" cx="337.189" cy="32.594" r="24"/>
<g>
	<path style="fill:#026E43;" d="M272.469,218.354c23.527,16.84,41.07,40.745,50.08,68.24h-23.6l-28.24-37.6v-28.16l1.68-2.48
		H272.469z"/>
	<path style="fill:#026E43;" d="M92.069,342.994l-18.8,47.04l-0.96,0.56c-0.044,0-0.08-0.036-0.08-0.08
		c-19.812-38.699-19.842-84.556-0.08-123.28l1.12,0.56l18.8,28.24L92.069,342.994z"/>
	<path style="fill:#026E43;" d="M131.989,207.394c19.018-9.54,40.004-14.498,61.28-14.48c6.884,0,13.758,0.535,20.56,1.6
		l-8.96,35.68l-46.96,9.44l-49.92-16.64C115.423,216.972,123.467,211.744,131.989,207.394z"/>
	<path style="fill:#026E43;" d="M298.949,352.434v61.76c-18.458,22.844-43.839,39.072-72.32,46.24l-31.12-23.36v-18.8h-28.24
		l-9.36-18.8l28.16-18.8l9.44-37.68l-18.8-28.16h-47.04l-9.36-9.44l37.6-37.6h75.2l37.6,28.24L298.949,352.434z"/>
</g>
<path style="fill:#168DE2;" d="M298.949,414.194v-61.76l-28.24-56.4l-37.6-28.24h-75.2l-37.6,37.6l9.36,9.44h47.04l18.8,28.16
	l-9.44,37.68l-28.16,18.8l9.36,18.8h28.24v18.8l31.12,23.36c-61.433,15.563-125.466-13.416-154.32-69.84l0.96-0.56l18.8-47.04
	v-46.96l-18.8-28.24l-1.12-0.56c3.817-7.644,8.401-14.881,13.68-21.6c6.472-8.391,13.91-15.99,22.16-22.64l49.92,16.64l46.96-9.44
	l8.96-35.68c21.141,3.165,41.219,11.339,58.56,23.84l-1.68,2.48v28.16l28.24,37.6h23.6
	C336.745,330.383,327.868,378.38,298.949,414.194L298.949,414.194z"/>
<g>
	<path style="fill:#FCB94E;" d="M60.469,157.234c6.245,6.252,6.239,16.383-0.013,22.627c-6.252,6.245-16.382,6.239-22.627-0.013
		c-6.24-6.247-6.24-16.368,0-22.615c6.245-6.252,16.376-6.257,22.627-0.013C60.46,157.226,60.464,157.23,60.469,157.234z"/>
	<path style="fill:#FCB94E;" d="M81.317,256.242l-28.312-73.496c-1.584-4.125,0.476-8.752,4.601-10.336
		c1.846-0.709,3.889-0.709,5.735,0l73.6,28.36l-5.968,14.848l-16.512-6.344l-40.12-15.496l21.896,56.8L81.317,256.242z"/>
	<path style="fill:#FCB94E;" d="M77.452,230.807l33.924-33.924l11.314,11.314l-33.924,33.924L77.452,230.807z"/>
</g>
<path style="fill:#B8E0FF;" d="M49.189,216.594c-26.536,0.068-48.103-21.388-48.171-47.924s21.388-48.103,47.924-48.171
	s48.103,21.388,48.171,47.924c0.022,8.551-2.239,16.953-6.548,24.339c-4.101,7.208-10.078,13.171-17.296,17.256
	C65.979,214.334,57.66,216.606,49.189,216.594z M49.189,136.594c-17.673-0.1-32.081,14.145-32.181,31.818
	s14.145,32.081,31.818,32.181c5.797,0.033,11.494-1.51,16.483-4.463c4.723-2.653,8.639-6.537,11.328-11.24l0.104-0.192
	c8.938-15.195,3.866-34.759-11.329-43.697C60.495,138.109,54.893,136.587,49.189,136.594L49.189,136.594z"/>
<path style="fill:#454545;" d="M369.189,280.594h16v56h-16V280.594z"/>
<path style="fill:#5B5B5B;" d="M385.189,288.594h48v16h-48V288.594z"/>
<g>
	<path style="fill:#FCB94E;" d="M417.189,393.554c-1.653,0.001-3.266-0.511-4.616-1.464l-24-16.968
		c-2.12-1.498-3.382-3.932-3.384-6.528v-40h16v35.856l18.32,12.944l13.2-0.8l0.96,16l-16,0.96H417.189z"/>
	<path style="fill:#FCB94E;" d="M417.021,393.554l-48-0.96c-3.739-0.078-6.925-2.736-7.672-6.4l-7.008-35.04l-27.088-6.768
		l3.872-15.52l32,8c2.999,0.75,5.298,3.161,5.904,6.192l6.744,33.704l41.6,0.8L417.021,393.554z"/>
</g>
<path style="fill:#454545;" d="M399.877,424.482l-48-8c-3.858-0.641-6.686-3.977-6.688-7.888v-48h16v41.224l41.312,6.888
	L399.877,424.482z"/>
<path style="fill:#FCB94E;" d="M449.189,400.594c-13.255,0-24-10.745-24-24s10.745-24,24-24s24,10.745,24,24
	S462.444,400.594,449.189,400.594z M449.189,368.594c-4.418,0-8,3.582-8,8s3.582,8,8,8s8-3.582,8-8S453.607,368.594,449.189,368.594
	z"/>
<path style="fill:#454545;" d="M337.189,64.594c-17.673,0-32-14.327-32-32s14.327-32,32-32s32,14.327,32,32
	S354.862,64.594,337.189,64.594z M337.189,16.594c-8.837,0-16,7.163-16,16s7.163,16,16,16s16-7.163,16-16
	S346.025,16.594,337.189,16.594z"/>
<g>
	<path style="fill:#5B5B5B;" d="M345.189,80.594h16v16h-16V80.594z"/>
	<g>
		<path id="SVGCleanerId_0" style="fill:#5B5B5B;" d="M281.189,64.594h16v16h-16V64.594z"/>
	</g>
	<g>
		<path id="SVGCleanerId_1" style="fill:#5B5B5B;" d="M249.189,72.594h16v16h-16V72.594z"/>
	</g>
	<g>
		<path id="SVGCleanerId_2" style="fill:#5B5B5B;" d="M217.189,80.594h16v16h-16V80.594z"/>
	</g>
	<g>
		<path id="SVGCleanerId_3" style="fill:#5B5B5B;" d="M185.189,88.594h16v16h-16V88.594z"/>
	</g>
	<g>
		<path id="SVGCleanerId_4" style="fill:#5B5B5B;" d="M153.189,96.594h16v16h-16V96.594z"/>
	</g>
	<g>
		<path id="SVGCleanerId_5" style="fill:#5B5B5B;" d="M121.189,104.594h16v16h-16V104.594z"/>
	</g>
	<g>
		<path id="SVGCleanerId_6" style="fill:#5B5B5B;" d="M89.189,112.594h16v16h-16V112.594z"/>
	</g>
	<path style="fill:#5B5B5B;" d="M353.189,112.594h16v16h-16V112.594z"/>
	<path style="fill:#5B5B5B;" d="M361.189,144.594h16v16h-16V144.594z"/>
	<path style="fill:#5B5B5B;" d="M369.189,176.594h16v16h-16V176.594z"/>
	<path style="fill:#5B5B5B;" d="M377.189,208.594h16v16h-16V208.594z"/>
	<path style="fill:#5B5B5B;" d="M385.189,240.594h16v16h-16V240.594z"/>
</g>
<g>
	<path style="fill:#454545;" d="M361.189,24.594h32v16h-32V24.594z"/>
	<path style="fill:#454545;" d="M281.189,24.594h32v16h-32V24.594z"/>
	<path style="fill:#454545;" d="M409.189,24.594h16v16h-16V24.594z"/>
	<path style="fill:#454545;" d="M249.189,24.594h16v16h-16V24.594z"/>
</g>
<path d="M473.189,376.594c0-13.255-10.745-24-24-24s-24,10.745-24,24c0,0.168,0.048,0.312,0.048,0.48l-5.728,0.352l-18.32-12.976
	v-35.856h-16v-24h48v-16h-48v-8h-16v56h16v32c0,2.595,1.259,5.028,3.376,6.528l2.72,1.928l-15.512-0.32l-6.744-33.736
	c-0.606-3.031-2.905-5.442-5.904-6.192l-26.008-6.496c0-0.536,0.072-1.072,0.072-1.6c0.01-15.146-2.374-30.198-7.064-44.6
	c-0.28-0.848-0.64-1.672-0.936-2.52v-0.992h-0.376c-20.451-57.329-74.709-95.633-135.576-95.712
	c-21.285-0.04-42.308,4.686-61.528,13.832l-37.344-14.4c9.029-25.272-4.139-53.079-29.412-62.107
	c-25.272-9.029-53.079,4.139-62.107,29.412s4.139,53.079,29.412,62.107c10.567,3.775,22.115,3.777,32.683,0.004l11.864,30.864
	c-17.961,24.365-27.579,53.875-27.424,84.144c-0.004,79.445,64.395,143.852,143.84,143.856c0.005,0,0.011,0,0.016,0
	c72.606,0.108,133.864-54.007,142.712-126.072l18.4,4.6l1.88,9.472h-11.04v48c0.002,3.911,2.83,7.247,6.688,7.888l48,8l2.624-15.776
	l-41.312-6.888v-16.424l0.16,0.8c0.747,3.664,3.933,6.322,7.672,6.4l48,1h0.16h0.504l13.84-0.864
	c8.848,9.804,23.968,10.58,33.772,1.732C470.351,389.902,473.222,383.402,473.189,376.594L473.189,376.594z M281.189,236.002
	c13.226,12.535,23.642,27.734,30.56,44.592h-6.4l-24.16-32.272V236.002z M193.237,200.882c3.52,0,7.072,0.184,10.624,0.488
	l-5.496,21.984l-40,8l-32.896-10.968C145.749,207.584,169.254,200.819,193.237,200.882z M86.477,198.482l16.84,6.48l-17.784,17.792
	l-6.48-16.848c1.425-1.033,2.79-2.147,4.088-3.336c1.19-1.305,2.304-2.678,3.336-4.112V198.482z M64.533,172.882
	c2.395-8.506-2.558-17.343-11.064-19.738c-8.506-2.395-17.343,2.558-19.738,11.064c-2.395,8.506,2.558,17.343,11.064,19.738
	c2.836,0.799,5.838,0.799,8.674,0l5.736,14.92c-16.767,5.585-34.888-3.481-40.472-20.248s3.481-34.888,20.248-40.472
	s34.888,3.481,40.472,20.248c2.186,6.564,2.186,13.66,0,20.224L64.533,172.882z M65.381,328.746
	c-0.024-14.609,2.494-29.11,7.44-42.856l8.368,12.544v43.056l-9.952,24.88c-3.835-12.178-5.809-24.865-5.856-37.632V328.746z
	 M289.189,413.154c-16.614,18.842-38.391,32.396-62.632,38.984l-25.368-19.08v-16.464c0-4.418-3.582-8-8-8h-23.424l-4.08-8.168
	l22.488-15.032c1.659-1.098,2.844-2.78,3.32-4.712l9.456-37.816c0.553-2.193,0.152-4.519-1.104-6.4l-18.904-28.368
	c-1.497-2.203-3.992-3.517-6.656-3.504h-46.584l-1.6-1.6l30.4-30.4h70.824l34.752,26.064l27.112,54.224V413.154z M305.189,390.754
	v-39.76c0.014-1.238-0.26-2.462-0.8-3.576l-28.8-57.6c-0.566-1.118-1.388-2.085-2.4-2.824l-38.4-28.8
	c-1.385-1.039-3.069-1.6-4.8-1.6h-76.8c-2.122,0-4.156,0.844-5.656,2.344l-38.4,38.4c-3.123,3.124-3.123,8.188,0,11.312l9.6,9.6
	c1.5,1.5,3.534,2.344,5.656,2.344h45.6l14.568,21.856l-7.848,31.384l-25.792,17.2c-3.357,2.237-4.523,6.623-2.72,10.232
	l9.456,18.904c1.354,2.71,4.123,4.422,7.152,4.424h20.384v12.456c0,2.518,1.186,4.889,3.2,6.4l16.696,12.56
	c-3.896,0.344-7.896,0.584-11.848,0.584c-47.687,0.106-91.435-26.447-113.352-68.8l16.736-41.824
	c0.372-0.934,0.565-1.93,0.568-2.936v-47.016c0-1.58-0.467-3.125-1.344-4.44l-15.296-22.936c2.978-5.57,6.374-10.905,10.16-15.96
	l5.528-2.128l-1.312-3.4c4.552-5.441,9.542-10.501,14.92-15.128l45.512,15.2c1.318,0.448,2.732,0.536,4.096,0.256l47.016-9.4
	c3.034-0.608,5.445-2.91,6.192-5.912l7.056-28.256c17.165,3.505,33.411,10.548,47.704,20.68h-2.232v26.4
	c-0.005,1.732,0.557,3.417,1.6,4.8l28.208,37.6c1.511,2.014,3.882,3.2,6.4,3.2h15.632c2.746,10.495,4.144,21.296,4.16,32.144
	c0.076,21.692-5.434,43.039-16,61.984L305.189,390.754z M449.189,384.594c-4.418,0-8-3.582-8-8s3.582-8,8-8s8,3.582,8,8
	S453.607,384.594,449.189,384.594z"/>
<path d="M337.189,64.594c14.547-0.055,27.227-9.915,30.864-24h25.136v-16h-25.136c-4.338-17.046-21.674-27.347-38.719-23.009
	c-11.304,2.877-20.131,11.704-23.009,23.009h-25.136v16h25.136C309.961,54.68,322.641,64.54,337.189,64.594L337.189,64.594z
	 M337.189,16.594c8.837,0,16,7.163,16,16s-7.163,16-16,16s-16-7.163-16-16S328.352,16.594,337.189,16.594z"/>
<path d="M345.189,80.602h16v16h-16V80.602z"/>
<path id="SVGCleanerId_0_1_" d="M281.189,64.594h16v16h-16V64.594z"/>
<path id="SVGCleanerId_1_1_" d="M249.189,72.594h16v16h-16V72.594z"/>
<path id="SVGCleanerId_2_1_" d="M217.189,80.594h16v16h-16V80.594z"/>
<path id="SVGCleanerId_3_1_" d="M185.189,88.594h16v16h-16V88.594z"/>
<path id="SVGCleanerId_4_1_" d="M153.189,96.594h16v16h-16V96.594z"/>
<path id="SVGCleanerId_5_1_" d="M121.189,104.594h16v16h-16V104.594z"/>
<path id="SVGCleanerId_6_1_" d="M89.189,112.594h16v16h-16V112.594z"/>
<path d="M353.189,112.602h16v16h-16V112.602z"/>
<path d="M361.189,144.602h16v16h-16V144.602z"/>
<path d="M369.189,176.602h16v16h-16V176.602z"/>
<path d="M377.189,208.602h16v16h-16V208.602z"/>
<path d="M385.189,240.602h16v16h-16V240.602z"/>
<path d="M409.189,24.594h16v16h-16V24.594z"/>
<path d="M249.189,24.594h16v16h-16V24.594z"/>
<g>
</g>
<g>
</g>
<g>
</g>
<g>
</g>
<g>
</g>
<g>
</g>
<g>
</g>
<g>
</g>
<g>
</g>
<g>
</g>
<g>
</g>
<g>
</g>
<g>
</g>
<g>
</g>
<g>
</g>
</svg>
