<svg height="512" viewBox="0 0 60 60" width="512" xmlns="http://www.w3.org/2000/svg"><g id="Page-1" fill="none" fill-rule="evenodd"><g id="025---Online-Data" fill-rule="nonzero"><g id="Icons" transform="translate(1)"><path id="Shape" d="m58 19.18v27.64c.0452102 1.152631-.8477494 2.1259569-2 2.18h-46c-1.15225064-.0540431-2.04521019-1.027369-2-2.18v-14.4c5.2407126 3.2704024 11.84305 3.4405402 17.2452472.4443985s8.7539515-8.6869719 8.7547528-14.8643985c0-.33 0-.67 0-1h22c1.1522506.0540431 2.0452102 1.027369 2 2.18z" fill="#02a9f4"/><path id="Shape" d="m56 17h-3c1.1522506.0540431 2.0452102 1.027369 2 2.18v27.64c.0452102 1.152631-.8477494 2.1259569-2 2.18h3c1.1522506-.0540431 2.0452102-1.027369 2-2.18v-27.64c.0452102-1.152631-.8477494-2.1259569-2-2.18z" fill="#0377bc"/><path id="Shape" d="m29 49-3 6h11 3l-3-6z" fill="#607d8b"/><path id="Shape" d="m20 55h26v2c0 1.1045695-.8954305 2-2 2h-22c-1.1045695 0-2-.8954305-2-2z" fill="#7f8e94" transform="matrix(-1 0 0 -1 66 114)"/><path id="Shape" d="m44 55h-3c1.1045695 0 2 .8954305 2 2v2h3v-2c0-1.1045695-.8954305-2-2-2z" fill="#545c60"/><path id="Shape" d="m34 18c-.2732748 9.287324-7.9523338 16.6348135-17.2426725 16.4981613s-16.74997297-7.7068177-16.74997297-16.9981613c0-9.29134365 7.45963427-16.86150908 16.74997297-16.99816127 9.2903387-.13665218 16.9693977 7.21083724 17.2426725 16.49816127z" fill="#3f51b5"/></g><g id="Icons_copy" fill="#000"><path id="Shape" d="m57 16h-21.12c-.2615565-2.2267422-.9400424-4.3843274-2-6.36.0019024-.02329456.0019024-.04670544 0-.07-3.1257309-5.87352019-9.2365473-9.54376561-15.89-9.54376561s-12.76426914 3.67024542-15.89 9.54376561c-.00190238.02329456-.00190238.04670544 0 .07-2.75939854 5.2317837-2.75939854 11.4882163 0 16.72-.00190238.0232946-.00190238.0467054 0 .07 1.39513163 2.6427887 3.42191212 4.8997291 5.9 6.57v13.82c-.04487651 1.7047185 1.2955594 3.1255806 3 3.18h17.38l-2 4h-3.38c-1.6568542 0-3 1.3431458-3 3v2c0 .5522847.4477153 1 1 1h26c.5522847 0 1-.4477153 1-1v-2c0-1.6568542-1.3431458-3-3-3h-3.38l-2-4h17.38c1.7044406-.0544194 3.0448765-1.4752815 3-3.18v-27.64c.0448765-1.7047185-1.2955594-3.1255806-3-3.18zm-54.95 3h3.95c.06808489 2.0286649.37349809 4.0423783.91 6h-3.28c-.91507427-1.8770214-1.45193496-3.9157329-1.58-6zm1.58-8h3.31c-.54664362 1.9564124-.86212865 3.9701466-.94 6h-4c.14371254-2.0876911.69760719-4.1265671 1.63-6zm30.37 6h-4c-.0680849-2.0286649-.3734981-4.0423783-.91-6h3.31c.921999 1.8755888 1.4656728 3.9143654 1.6 6zm-12.54 16c.8655128-1.909753 1.4676811-3.9281942 1.79-6h3c-.9289149 2.4522808-2.6043821 4.5509872-4.79 6zm2.1-8c.2556855-1.9905087.4025705-3.9934859.44-6h4c-.078049 2.0342627-.4140692 4.0503842-1 6zm-1.56-6c-.0178784 2.0066792-.1581388 4.0103996-.42 6h-7.14c-.2685507-1.9891907-.4154903-3.992913-.44-6zm-8-2c.0178784-2.0066792.1581388-4.0103996.42-6h7.12c.2752414 1.9887807.4288603 3.9925048.46 6zm14 0h-4c-.0341119-2.0063316-.1776585-4.0093082-.43-6h3.43c.5859308 1.9496158.921951 3.9657373 1 6zm-4.75-8c-.3223189-2.0718058-.9244872-4.09024702-1.79-6 2.1893383 1.44745176 3.8684384 3.5463269 4.8 6zm-2 0h-6.48c.88-4.61 2.31-7 3.23-7s2.35 2.39 3.23 7zm-6.71-6c-.8655128 1.90975298-1.4676811 3.9281942-1.79 6h-3c.9289149-2.45228075 2.6043821-4.55098715 4.79-6zm-2.1 8c-.2556855 1.9905087-.4025705 3.9934859-.44 6h-4c.07804899-2.0342627.41406924-4.0503842 1-6zm-4.44 8h4c.0341119 2.0063316.1776585 4.0093082.43 6h-3.43c-.58593076-1.9496158-.92195101-3.9657373-1-6zm4.72 8c.3223189 2.0718058.9244872 4.090247 1.79 6-2.1893383-1.4474518-3.8684384-3.5463269-4.8-6zm2 0h6.46c-.88 4.61-2.31 7-3.23 7s-2.3-2.39-3.18-7zm13.61 0h2.84c-1.5000398 2.1890011-3.5160637 3.9749166-5.87 5.2 1.3113081-1.5481349 2.3525349-3.3060504 3.08-5.2zm4-2h-3.27c.5466436-1.9564124.8621287-3.9701466.94-6h4c-.1437125 2.0876911-.6976072 4.1265671-1.63 6zm-1.11-16h-2.84c-.703061-1.88848347-1.7170515-3.64606701-3-5.2 2.3430032 1.22911489 4.348376 3.01472081 5.84 5.2zm-20.57-5.2c-1.2829485 1.55393299-2.296939 3.31151653-3 5.2h-2.87c1.50003983-2.18900115 3.51606367-3.97491664 5.87-5.2zm-5.87 23.2h2.84c.703061 1.8884835 1.7170515 3.646067 3 5.2-2.34300319-1.2291149-4.34837599-3.0147208-5.84-5.2zm41.22 30v1h-24v-1c0-.5522847.4477153-1 1-1h22c.5522847 0 1 .4477153 1 1zm-6.62-3h-10.76l2-4h6.76zm17.62-6h-46c-.5950221-.0630621-1.03538712-.5826928-1-1.18v-2.82h40c.5522847 0 1-.4477153 1-1s-.4477153-1-1-1h-40v-7.9c8.7233584 4.3748782 19.3435905.9652013 23.89-7.67.0019024-.0232946.0019024-.0467054 0-.07 1.3762883-2.5722323 2.10078-5.4427301 2.11-8.36h21c.5950221.0630621 1.0353871.5826928 1 1.18v22.82h-4c-.5522847 0-1 .4477153-1 1s.4477153 1 1 1h4v2.82c.0353871.5973072-.4049779 1.1169379-1 1.18z"/><path id="Shape" d="m54.54 20.16c-.4640673-.2974116-1.0812901-.1632328-1.38.3l-6.28 9.86-5.12-6c-.2033234-.2388015-.5069045-.3683788-.82-.35-.3130476.0209028-.5981375.1875138-.77.45l-8 12c-.3012473.4588827-.176275 1.0748175.28 1.38.157381.123493.3500556.1935565.55.2.3345191-.0017306.6460165-.1706148.83-.45l7.27-10.9 5.14 6c.2054822.2417238.5134772.3716012.83.35.3148947-.0231723.6003485-.1937031.77-.46l7-11c.2974116-.4640673.1632328-1.0812901-.3-1.38z"/><circle id="Oval" cx="41" cy="39" r="1"/><circle id="Oval" cx="41" cy="35" r="1"/><circle id="Oval" cx="41" cy="31" r="1"/><circle id="Oval" cx="54" cy="39" r="1"/><circle id="Oval" cx="54" cy="35" r="1"/><circle id="Oval" cx="54" cy="31" r="1"/><circle id="Oval" cx="54" cy="27" r="1"/></g></g></g></svg>